<?xml version="1.0" encoding="UTF-8"?>
<svg id="Layer_2" data-name="Layer 2" xmlns="http://www.w3.org/2000/svg" xmlns:xlink="http://www.w3.org/1999/xlink" viewBox="0 0 92.67 92.67">
  <defs>
    <style>
      .cls-1 {
        fill: url(#linear-gradient);
      }

      .cls-2 {
        fill: #00acf3;
      }

      .cls-3 {
        fill: url(#linear-gradient-2);
      }
    </style>
    <linearGradient id="linear-gradient" x1="64" y1="5.19" x2="30.67" y2="85.34" gradientTransform="translate(0 94) scale(1 -1)" gradientUnits="userSpaceOnUse">
      <stop offset="0" stop-color="#eef2f5"/>
      <stop offset=".51" stop-color="#f9fbfc"/>
      <stop offset="1" stop-color="#fff"/>
    </linearGradient>
    <linearGradient id="linear-gradient-2" x1="38.25" y1="87.63" x2="53.77" y2="10.92" gradientTransform="translate(0 94) scale(1 -1)" gradientUnits="userSpaceOnUse">
      <stop offset="0" stop-color="#eef2f5"/>
      <stop offset=".4" stop-color="#f6f8fa"/>
      <stop offset="1" stop-color="#fff"/>
    </linearGradient>
  </defs>
  <g id="Layer_2-2" data-name="Layer 2">
    <g>
      <g>
        <rect class="cls-1" width="92.67" height="92.67" rx="21.17" ry="21.17"/>
        <path class="cls-3" d="m21.35,9.37h50.15c6.51,0,11.8,5.29,11.8,11.8v50.33c0,6.51-5.29,11.8-11.8,11.8H21.17c-6.51,0-11.8-5.29-11.8-11.8V21.35c0-6.61,5.37-11.97,11.97-11.97h.01Z"/>
      </g>
      <path class="cls-2" d="m24.93,59.84c3.88,2.46,8.47,3.88,13.4,3.88,13.84,0,25.07-11.22,25.07-25.07,0-.35,0-.69-.02-1.03.5-.39,3.6-2.88,4.36-4.47,0,0-2.52,1.05-4.98,1.29h-.02,0c.23-.15,3.4-2.31,3.83-4.88,0,0-1.78.95-4.27,1.78-.41.14-.84.27-1.29.4-1.61-1.71-3.89-2.78-6.42-2.78-4.86,0-8.8,3.94-8.8,8.79,0,.69.08,1.35.23,1.99-.68-.03-11.02-.61-18.05-9.13,0,0-4.2,5.74,2.51,11.64,0,0-2.04-.08-3.8-1.13,0,0-.65,6.95,6.95,8.73,0,0-1.49.57-3.88.16,0,0,1.33,5.62,8.08,6.14,0,0-5.34,4.82-12.92,3.69h.01Z"/>
    </g>
  </g>
</svg>