<?xml version="1.0" encoding="UTF-8"?>
<svg id="Layer_2" data-name="Layer 2" xmlns="http://www.w3.org/2000/svg" xmlns:xlink="http://www.w3.org/1999/xlink" viewBox="0 0 92.67 92.67">
  <defs>
    <style>
      .cls-1 {
        fill: url(#linear-gradient);
      }

      .cls-2 {
        fill: #2554a2;
      }

      .cls-3 {
        fill: url(#linear-gradient-2);
      }
    </style>
    <linearGradient id="linear-gradient" x1="64" y1="5.19" x2="30.67" y2="85.34" gradientTransform="translate(0 94) scale(1 -1)" gradientUnits="userSpaceOnUse">
      <stop offset="0" stop-color="#eef2f5"/>
      <stop offset=".51" stop-color="#f9fbfc"/>
      <stop offset="1" stop-color="#fff"/>
    </linearGradient>
    <linearGradient id="linear-gradient-2" x1="38.25" y1="87.63" x2="53.77" y2="10.92" gradientTransform="translate(0 94) scale(1 -1)" gradientUnits="userSpaceOnUse">
      <stop offset="0" stop-color="#eef2f5"/>
      <stop offset=".4" stop-color="#f6f8fa"/>
      <stop offset="1" stop-color="#fff"/>
    </linearGradient>
  </defs>
  <g id="Layer_2-2" data-name="Layer 2">
    <g>
      <rect class="cls-1" width="92.67" height="92.67" rx="21.17" ry="21.17"/>
      <path class="cls-3" d="m21.35,9.37h50.15c6.51,0,11.8,5.29,11.8,11.8v50.33c0,6.51-5.29,11.8-11.8,11.8H21.17c-6.51,0-11.8-5.29-11.8-11.8V21.35c0-6.61,5.37-11.97,11.97-11.97h.01Z"/>
    </g>
    <path class="cls-2" d="m57.08,45.69l1.13-8.6h-8.2v-5.98c0-1.67,1.35-3.02,3.02-3.02h5.31v-7.73h-7.42c-5.25,0-9.51,4.26-9.51,9.51v7.22h-7.1v8.6h7.1v21.06h8.6v-21.06h7.07Z"/>
  </g>
</svg>